<svg xmlns="http://www.w3.org/2000/svg" width="65" height="66.305" viewBox="0 0 65 66.305">
  <path id="hourglass" d="M57.376,52.2a3.947,3.947,0,0,1-3.071,3.844v.732a1.175,1.175,0,0,1-2.351,0v-.686A3.958,3.958,0,0,1,49.376,54.5a1.174,1.174,0,1,1,1.9-1.377,1.6,1.6,0,0,0,1.292.664h.868a1.59,1.59,0,1,0,0-3.181h-.615a3.94,3.94,0,0,1-.868-7.783v-.733a1.175,1.175,0,0,1,2.351,0v.687a3.965,3.965,0,0,1,2.579,1.588,1.174,1.174,0,0,1-1.9,1.377,1.608,1.608,0,0,0-1.292-.665h-.867a1.59,1.59,0,1,0,0,3.18h.615A3.945,3.945,0,0,1,57.376,52.2Zm-4.246,8.964A11.729,11.729,0,1,0,41.4,49.433,11.743,11.743,0,0,0,53.129,61.162Zm0-25.808A14.079,14.079,0,1,0,67.21,49.433,14.094,14.094,0,0,0,53.129,35.355Zm0,30.6A16.522,16.522,0,1,0,36.605,49.433,16.544,16.544,0,0,0,53.129,65.955Zm-43.781-6.7a2.927,2.927,0,0,1,2.923-2.925H35.565a18.588,18.588,0,0,0,2.375,4.286H9.349Zm25.466-5.275H19.755V53.6a8.624,8.624,0,0,1,3.483-7.124L29.633,41.5l5.053,3.931a19.075,19.075,0,0,0-.431,4,18.79,18.79,0,0,0,.56,4.55ZM19.879,37.487l5.237-4.076a1.171,1.171,0,0,0,0-1.854L19.879,27.48a14.033,14.033,0,0,1-5.588-11.436V10.985H44.981v5.059A14.021,14.021,0,0,1,39.387,27.48L34.15,31.556a1.181,1.181,0,0,0,0,1.854l4.72,3.674A18.988,18.988,0,0,0,35.387,43l-5.028-3.915a1.179,1.179,0,0,0-1.446,0l-7.12,5.541A10.878,10.878,0,0,0,17.4,53.6v.383H14.291V48.924a14.035,14.035,0,0,1,5.588-11.436ZM9.349,5.712V4.349H49.923V5.712a2.928,2.928,0,0,1-2.929,2.923H12.272A2.926,2.926,0,0,1,9.349,5.712Zm43.781,24.85a18.814,18.814,0,0,0-12.6,4.835l-3.742-2.915,4.049-3.148a16.314,16.314,0,0,0,6.493-13.291V10.973a5.283,5.283,0,0,0,4.948-5.261V3.175A1.177,1.177,0,0,0,51.1,2H8.173A1.177,1.177,0,0,0,7,3.175V5.712a5.282,5.282,0,0,0,4.942,5.261v5.071a16.3,16.3,0,0,0,6.5,13.291l4.049,3.148-4.049,3.15a16.3,16.3,0,0,0-6.5,13.291v5.07A5.282,5.282,0,0,0,7,59.257v2.536a1.177,1.177,0,0,0,1.175,1.174H39.99A18.867,18.867,0,1,0,53.129,30.562ZM19.823,16.45A8.567,8.567,0,0,0,23.239,22.4l6.394,4.978,6.4-4.978a8.567,8.567,0,0,0,3.415-5.949Zm8.634,15.473V29.441l-6.665-5.189A10.878,10.878,0,0,1,17.4,15.275,1.177,1.177,0,0,1,18.58,14.1H40.692a1.176,1.176,0,0,1,1.175,1.175,10.865,10.865,0,0,1-4.394,8.977l-6.665,5.189v2.483a1.176,1.176,0,0,1-2.351,0Z" transform="translate(-6.998 -2)" fill="#008c00" fill-rule="evenodd"/>
</svg>
