<svg xmlns="http://www.w3.org/2000/svg" width="65" height="74.362" viewBox="0 0 65 74.362">
  <path id="insurance_1_" data-name="insurance (1)" d="M60.174,30.326c0,2.158,2.044,3.913,4.556,3.913,4.114,0,7.461,3.059,7.461,6.818a7.016,7.016,0,0,1-5.98,6.683l.042,1.758a1.452,1.452,0,0,1-1.417,1.487H64.8a1.452,1.452,0,0,1-1.451-1.417l-.044-1.806a8.478,8.478,0,0,1-4.6-2.59A1.452,1.452,0,1,1,60.7,43.061c1.428,1.347,2.3,1.91,4.031,1.91,2.512,0,4.556-1.756,4.556-3.913s-2.044-3.913-4.556-3.913c-4.114,0-7.461-3.059-7.461-6.818a7.017,7.017,0,0,1,5.985-6.684l-.047-1.955a1.452,1.452,0,1,1,2.9-.069l.049,2.068c1.837.4,4.138,1.472,5.114,2.956a1.452,1.452,0,0,1-2.427,1.6,6.68,6.68,0,0,0-4.117-1.825C62.218,26.412,60.174,28.168,60.174,30.326ZM72.6,6.778A50.789,50.789,0,0,0,89.558,14.2a1.452,1.452,0,0,1,1.136,1.418V37.141c0,6.158-2.949,12.8-8.3,18.713A42.6,42.6,0,0,1,65.2,67.46a1.453,1.453,0,0,1-.931,0,42.6,42.6,0,0,1-17.2-11.605c-5.354-5.909-8.3-12.555-8.3-18.713V15.619A1.452,1.452,0,0,1,39.9,14.2a50.789,50.789,0,0,0,16.96-7.423,1.452,1.452,0,0,1,.8-.242H71.8a1.452,1.452,0,0,1,.8.242Zm15.191,9.99A53.994,53.994,0,0,1,71.36,9.441H58.1a53.991,53.991,0,0,1-16.429,7.327V37.141c0,5.436,2.681,11.389,7.55,16.762A40.462,40.462,0,0,0,64.73,64.546,40.464,40.464,0,0,0,80.239,53.9c4.869-5.374,7.55-11.327,7.55-16.762V16.768Zm9.44-6.753V37.141a30.115,30.115,0,0,1-3.127,13.1,42.392,42.392,0,0,1-7.825,11.021C80.249,67.5,72.334,72.376,65.106,74.313a1.452,1.452,0,0,1-.752,0C57.126,72.376,49.212,67.5,43.183,61.265a42.382,42.382,0,0,1-7.825-11.021,30.113,30.113,0,0,1-3.128-13.1V10.015a1.452,1.452,0,0,1,1.337-1.448c8.929-.71,16.469-4.9,21.223-8.3A1.452,1.452,0,0,1,55.634,0H73.826a1.452,1.452,0,0,1,.844.27c4.754,3.393,12.295,7.586,21.223,8.3a1.453,1.453,0,0,1,1.337,1.448Zm-2.9,1.317A46.272,46.272,0,0,1,73.364,2.9H56.1a46.272,46.272,0,0,1-20.961,8.426v25.81c0,16.784,17.362,30.8,29.6,34.262,12.233-3.467,29.6-17.478,29.6-34.262Z" transform="translate(-32.23)" fill="#009c00"/>
</svg>
