<svg xmlns="http://www.w3.org/2000/svg" width="507.692" height="489.69" viewBox="0 0 507.692 489.69">
  <g id="man_freelancer" data-name="man freelancer" transform="translate(0 0)">
    <g id="Background_Complete" transform="translate(1.473 0)">
      <g id="Group_282" data-name="Group 282" transform="translate(0 1.57)">
        <rect id="Rectangle_144" data-name="Rectangle 144" width="42.797" height="13.62" transform="translate(24.478 404.034)" fill="#ebebeb"/>
        <rect id="Rectangle_145" data-name="Rectangle 145" width="42.797" height="13.62" transform="translate(128.651 269.671)" fill="#ebebeb"/>
        <g id="Group_277" data-name="Group 277" transform="translate(0 420.602)">
          <path id="Path_211" data-name="Path 211" d="M464.845,404.207l-21.544-.353-10.65-.146-10.6-.049.56.56.049-13.62-.609.609,21.4-.085,10.7-.1,10.7-.134-.292-.292Zm0,0,.292-13.62v-.28h-.292l-10.7-.134-10.7-.1-21.4-.085h-.609v.609l.049,13.62v.56h.548l10.8-.049,10.748-.146Z" transform="translate(-421.44 -389.99)" fill="#ebebeb"/>
        </g>
        <g id="Group_278" data-name="Group 278" transform="translate(271.666 88.551)">
          <path id="Path_212" data-name="Path 212" d="M241.655,131.407l-21.544-.353-10.65-.146-10.6-.049.56.56.049-13.62-.609.609,21.4-.085,10.7-.1,10.7-.134-.292-.292Zm0,0,.292-13.62v-.28h-.292l-10.7-.134-10.7-.1-21.4-.085h-.609v.609l.049,13.62v.56h.548l10.8-.049,10.748-.146Z" transform="translate(-198.25 -117.19)" fill="#ebebeb"/>
        </g>
        <g id="Group_279" data-name="Group 279" transform="translate(247.785 105.726)">
          <path id="Path_213" data-name="Path 213" d="M261.275,145.517l-21.544-.353-10.65-.146-10.6-.049.56.56.049-13.62-.609.609,21.4-.085,10.7-.1,10.7-.134-.292-.292Zm0,0,.292-13.62v-.28h-.292l-10.7-.134-10.7-.1-21.4-.085h-.609v.609l.049,13.62v.56h.548l10.8-.049,10.748-.146Z" transform="translate(-217.87 -131.3)" fill="#ebebeb"/>
        </g>
        <rect id="Rectangle_146" data-name="Rectangle 146" width="42.797" height="13.62" transform="translate(224.622 89.147)" fill="#ebebeb"/>
        <rect id="Rectangle_147" data-name="Rectangle 147" width="42.797" height="13.62" transform="translate(461.346 421.208)" fill="#ebebeb"/>
        <rect id="Rectangle_148" data-name="Rectangle 148" width="42.797" height="13.62" transform="translate(437.472 0.604)" fill="#ebebeb"/>
        <g id="Group_280" data-name="Group 280" transform="translate(460.733 17.175)">
          <path id="Path_214" data-name="Path 214" d="M86.325,72.767l-21.544-.353-10.65-.146-10.6-.049.56.56.049-13.62-.609.609,21.4-.085,10.7-.1,10.7-.134-.292-.292Zm0,0,.292-13.62v-.28h-.292l-10.7-.134-10.7-.1-21.4-.085H42.92v.609l.049,13.62v.56h.548l10.8-.049,10.748-.146Z" transform="translate(-42.92 -58.55)" fill="#ebebeb"/>
        </g>
        <g id="Group_281" data-name="Group 281" transform="translate(23.869)">
          <path id="Path_215" data-name="Path 215" d="M445.235,58.657,423.691,58.3l-10.65-.146-10.6-.049.56.56.049-13.62-.609.609,21.4-.085,10.7-.1,10.7-.134-.292-.292Zm0,0,.292-13.62v-.28h-.292l-10.7-.134-10.7-.1-21.4-.085h-.609v.609l.049,13.62v.56h.548l10.8-.049,10.748-.146Z" transform="translate(-401.83 -44.44)" fill="#ebebeb"/>
        </g>
      </g>
      <g id="Group_291" data-name="Group 291" transform="translate(10.023)">
        <g id="Group_286" data-name="Group 286">
          <g id="Group_285" data-name="Group 285">
            <g id="Group_283" data-name="Group 283" transform="translate(10.474)">
              <path id="Path_216" data-name="Path 216" d="M468.025,43.15V280.479H313.77V43.15ZM319.466,274.795H462.341V48.846H319.466Z" transform="translate(-313.77 -43.15)" fill="#ebebeb"/>
              <rect id="Rectangle_149" data-name="Rectangle 149" width="142.874" height="225.948" transform="translate(5.697 5.696)" fill="#fff"/>
              <rect id="Rectangle_150" data-name="Rectangle 150" width="142.874" height="5.696" transform="translate(5.702 115.821)" fill="#ebebeb"/>
            </g>
            <rect id="Rectangle_151" data-name="Rectangle 151" width="175.215" height="16.335" transform="translate(0 237.335)" fill="#dbdbdb"/>
            <g id="Group_284" data-name="Group 284" transform="translate(16.171 5.696)">
              <path id="Path_217" data-name="Path 217" d="M461.314,47.83H318.44V194.015H461.314Zm-137.6,5.27H456.044V188.745H323.711Z" transform="translate(-318.44 -47.83)" fill="#dbdbdb"/>
              <rect id="Rectangle_152" data-name="Rectangle 152" width="2.848" height="140.915" transform="translate(45.596)" fill="#dbdbdb"/>
              <rect id="Rectangle_153" data-name="Rectangle 153" width="2.848" height="140.915" transform="translate(94.43)" fill="#dbdbdb"/>
            </g>
          </g>
        </g>
        <g id="Group_290" data-name="Group 290" transform="translate(309.484)">
          <g id="Group_289" data-name="Group 289">
            <g id="Group_287" data-name="Group 287" transform="translate(10.474)">
              <path id="Path_218" data-name="Path 218" d="M213.765,43.15V280.479H59.51V43.15ZM65.194,274.795H208.069V48.846H65.194Z" transform="translate(-59.51 -43.15)" fill="#ebebeb"/>
              <rect id="Rectangle_154" data-name="Rectangle 154" width="142.874" height="225.948" transform="translate(5.684 5.696)" fill="#fff"/>
              <rect id="Rectangle_155" data-name="Rectangle 155" width="142.874" height="5.696" transform="translate(5.69 115.821)" fill="#ebebeb"/>
            </g>
            <rect id="Rectangle_156" data-name="Rectangle 156" width="175.215" height="16.335" transform="translate(0 237.335)" fill="#dbdbdb"/>
            <g id="Group_288" data-name="Group 288" transform="translate(16.17 5.696)">
              <path id="Path_219" data-name="Path 219" d="M207.054,47.83H64.18V194.015H207.054ZM69.45,53.1H201.784V188.745H69.45V53.1Z" transform="translate(-64.18 -47.83)" fill="#dbdbdb"/>
              <rect id="Rectangle_157" data-name="Rectangle 157" width="2.848" height="140.915" transform="translate(45.596)" fill="#dbdbdb"/>
              <rect id="Rectangle_158" data-name="Rectangle 158" width="2.848" height="140.915" transform="translate(94.418)" fill="#dbdbdb"/>
            </g>
          </g>
        </g>
      </g>
    </g>
    <g id="Floor" transform="translate(0 488.473)">
      <path id="Path_220" data-name="Path 220" d="M549.142,445.069l-63.465-.292-63.465-.11L295.3,444.46l-126.917.207-63.465.1-63.465.3,63.465.292,63.465.11,126.917.207,126.917-.207,63.465-.11Z" transform="translate(-41.45 -444.46)" fill="#263238"/>
    </g>
    <g id="Table" transform="translate(0 310.312)">
      <g id="Group_297" data-name="Group 297" transform="translate(0 0)">
        <g id="Group_292" data-name="Group 292" transform="translate(0.755)">
          <rect id="Rectangle_159" data-name="Rectangle 159" width="154.45" height="21.922" fill="#455a64"/>
        </g>
        <g id="Group_293" data-name="Group 293" transform="translate(4.431 21.922)">
          <rect id="Rectangle_160" data-name="Rectangle 160" width="147.086" height="7.121" fill="#455a64"/>
        </g>
        <g id="Group_294" data-name="Group 294" transform="translate(4.431 21.922)">
          <rect id="Rectangle_161" data-name="Rectangle 161" width="147.086" height="2.361" fill="#263238"/>
        </g>
        <g id="Group_295" data-name="Group 295" transform="translate(123.825 29.042)">
          <path id="Path_221" data-name="Path 221" d="M356.673,472.286h5.879L345.438,321.95H330.43Z" transform="translate(-330.43 -321.95)" fill="#455a64"/>
          <path id="Path_222" data-name="Path 222" d="M343.55,321.95,345.3,332h14.4l-1.144-10.054Z" transform="translate(-343.55 -321.95)" fill="#263238"/>
        </g>
        <g id="Group_296" data-name="Group 296" transform="translate(0 29.042)">
          <path id="Path_223" data-name="Path 223" d="M438.029,472.286H432.15L449.276,321.95h15.008Z" transform="translate(-432.15 -321.95)" fill="#455a64"/>
          <path id="Path_224" data-name="Path 224" d="M448.3,321.95,446.537,332H432.15l1.144-10.054Z" transform="translate(-416.168 -321.95)" fill="#263238"/>
        </g>
      </g>
    </g>
    <g id="Plant" transform="translate(-10.73 302.813)">
      <g id="Group_305" data-name="Group 305" transform="translate(420)">
        <g id="Group_304" data-name="Group 304">
          <g id="Group_301" data-name="Group 301">
            <g id="Group_298" data-name="Group 298" transform="translate(38.006)">
              <path id="Path_225" data-name="Path 225" d="M394.737,388.259a73.574,73.574,0,0,1,2.349,13.267c-.122.219-.1,1.047.036.815.024.73,1.132.6,1.132-.122-.012-.475-.024-.937-.049-1.388,2.593-3.213,6.354-5.258,9.4-8.058a17.578,17.578,0,0,0,5.149-8.192c2.52-8.691.158-17.9,3.189-26.584,2.617-7.474,7.3-13.973,11.283-20.753,4.187-7.169,7.279-14.692,7.6-23.078.243-6.427-.523-14.984-5.417-19.8-5.185-5.112-11.612-1.278-15.592,3.274-11.515,13.219-16.846,29.919-19,47-1.193,9.458-2.422,18.964-2.142,28.507A77.129,77.129,0,0,0,394.737,388.259Z" transform="translate(-392.627 -291.929)" fill="#ffc727"/>
              <path id="Path_226" data-name="Path 226" d="M403.029,400.857a162.552,162.552,0,0,1,.316-26.778c-.012-.037-.049-.049-.049-.1-.146-7.242-.718-14.448-.438-21.69a128.237,128.237,0,0,1,3.189-23.273.074.074,0,0,1,.146.024,151.97,151.97,0,0,0-2.52,22.762c-.146,4.09-.122,8.18.1,12.269.073,1.327.195,2.666.28,4v-.012a143.438,143.438,0,0,1,21.532-56.989c.146-.231.572.012.426.256a148.568,148.568,0,0,0-17.528,42.261c5.538-10.261,13.9-18.7,20.108-28.555.037-.049.122,0,.1.061-5.575,10.979-14.789,19.633-20.656,30.442-1.022,4.406-1.85,8.861-2.471,13.328a149.811,149.811,0,0,0-1.339,18.526c3.372-6.305,6.877-12.342,9.628-19,.073-.183.329-.061.268.122-2.349,6.926-5.5,14.387-9.92,20.291-.024,4.382.11,8.776.365,13.146.694,11.685,2.69,23.224,3.6,34.873a.27.27,0,0,1-.536.061A271.763,271.763,0,0,1,403.029,400.857Z" transform="translate(-398.631 -287.791)" fill="#263238"/>
              <path id="Path_227" data-name="Path 227" d="M418.585,310.757c.036-.085.158-.024.134.061-2.13,5.9-3.347,11.892-4.881,17.941a.222.222,0,0,1-.438-.073C414.021,322.54,416.211,316.417,418.585,310.757Z" transform="translate(-401.772 -287.849)" fill="#263238"/>
            </g>
            <g id="Group_299" data-name="Group 299" transform="translate(0 41.004)">
              <path id="Path_228" data-name="Path 228" d="M424.016,332.267a90.77,90.77,0,0,0,4.905,10.091c3.846,6.987,7.851,13.377,8.581,21.508.329,3.627.438,7.279,1.546,10.772a32.455,32.455,0,0,0,4.3,8.435c4.163,6.074,9.372,11.308,13.243,17.6a74.188,74.188,0,0,1,8.8,21.216c.1.414.742.3.645-.109a.287.287,0,0,1-.024-.1c.012-.024.036-.036.036-.085.609-17.43-.779-35.007-6.1-51.707a179.154,179.154,0,0,0-8.447-21.508c-2.848-6.062-6.4-11.88-11.405-16.408-3.25-2.921-10.285-8.46-14.9-5.526C422.969,327.86,423.14,330.088,424.016,332.267Z" transform="translate(-423.411 -325.616)" fill="#ffc727"/>
              <path id="Path_229" data-name="Path 229" d="M423.428,369.135a143.154,143.154,0,0,0,10.127,14.558c1.692,2.2,3.4,4.394,5.088,6.6.791,1.047,1.692,2.081,2.422,3.2-.463-1.838-.913-3.664-1.375-5.5-2.252-8.813-4.406-17.7-7.766-26.17-3.274-8.277-7.632-16.055-12.1-23.735-.122-.207.207-.353.329-.158,3.688,6.062,7.425,12.111,10.517,18.5a97.388,97.388,0,0,1,4.467,10.979,169.556,169.556,0,0,0-5.94-23.443.06.06,0,0,1,.11-.049,80.277,80.277,0,0,1,6.171,24.393c0,.012-.012.024-.012.036q1.132,3.4,2.094,6.853c2.751,9.75,5.161,19.609,7.388,29.5a105.816,105.816,0,0,0-1.68-19.39.117.117,0,0,1,.231-.036,61.488,61.488,0,0,1,1.68,20.437q1.26,5.642,2.471,11.3c1.716,8.034,3.822,16.213,4.82,24.38a.16.16,0,0,1-.316.049c-1.193-4.394-1.923-8.959-2.9-13.413s-2-8.922-3.031-13.377c-1.509-6.488-3.1-12.951-4.711-19.414-1.083-2.374-3.165-4.467-4.735-6.463-1.716-2.179-3.432-4.358-5.1-6.573a97.675,97.675,0,0,1-8.387-12.988C423.221,369.111,423.38,369.038,423.428,369.135Z" transform="translate(-405.307 -322.962)" fill="#263238"/>
              <path id="Path_230" data-name="Path 230" d="M436.292,357.425a90.151,90.151,0,0,1,9.908,15.751c.036.073-.073.146-.122.073-3.335-5.234-6.622-10.492-9.944-15.726C436.085,357.437,436.231,357.352,436.292,357.425Z" transform="translate(-418.914 -318.714)" fill="#263238"/>
            </g>
            <g id="Group_300" data-name="Group 300" transform="translate(46.945 44.554)">
              <path id="Path_231" data-name="Path 231" d="M423.147,348.163c-2.264,3.9-4.832,8.569-3.871,13.231.621,2.958,2.775,5.356,3.165,8.374.876,6.658-5.757,11.064-10.565,14.2-11.965,7.851-28.385,14.862-30.564,30.892-.085.572-1.059.426-1-.134a.356.356,0,0,1,.024-.11c-.024-.036-.061-.049-.061-.1a61.735,61.735,0,0,1,.219-24.5c1.789-8.265,5.392-15.7,9.652-22.956,7.206-12.294,14.838-24.879,25.731-34.288,3.019-2.6,9.19-7.291,11.588-1.412C429.818,337.1,425.91,343.416,423.147,348.163Z" transform="translate(-378.501 -328.533)" fill="#ffc727"/>
              <path id="Path_232" data-name="Path 232" d="M425.859,369.11c-7.936,8.593-20.558,13.413-27.387,23.029,4.053-14.752,10.748-28.02,21.045-39.535a.31.31,0,0,0-.438-.438,77.868,77.868,0,0,0-17.2,24.916,112.269,112.269,0,0,1,7.4-18.94c.11-.231-.219-.438-.353-.207a72.238,72.238,0,0,0-7.985,21.289c-9.007,21.788-9.835,47.349-7.948,70.317a.262.262,0,0,0,.523,0c-.511-18.1-.219-36.516,4.114-54.2.085-.365.195-.73.28-1.1,7.437-10.358,20-15.166,28.081-25C426.078,369.146,425.944,369.012,425.859,369.11Z" transform="translate(-392.168 -323.42)" fill="#263238"/>
              <path id="Path_233" data-name="Path 233" d="M403,360.008c-4.163,3.822-8.265,7.729-12.44,11.551-.037.036.012.109.061.085a61.068,61.068,0,0,0,12.634-11.381A.182.182,0,0,0,403,360.008Z" transform="translate(-367.469 -321.707)" fill="#263238"/>
              <path id="Path_234" data-name="Path 234" d="M402.534,346.412a131.421,131.421,0,0,1-12.464,17.15.078.078,0,0,0,.11.11,60.284,60.284,0,0,0,12.586-17.126C402.826,346.387,402.619,346.266,402.534,346.412Z" transform="translate(-366.348 -324.664)" fill="#263238"/>
            </g>
          </g>
          <g id="Group_303" data-name="Group 303" transform="translate(27.883 132.335)">
            <g id="Group_302" data-name="Group 302" transform="translate(0 5.44)">
              <path id="Path_235" data-name="Path 235" d="M442.152,454.222H405.66l4.917-49.1h25.951Z" transform="translate(-405.66 -405.12)" fill="#455a64"/>
              <path id="Path_236" data-name="Path 236" d="M437.2,413.1H409.52l.8-7.985h25.951Z" transform="translate(-405.406 -405.12)" fill="#263238"/>
            </g>
            <rect id="Rectangle_162" data-name="Rectangle 162" width="34.203" height="7.839" transform="translate(1.142 0)" fill="#455a64"/>
          </g>
        </g>
      </g>
    </g>
    <g id="Lamp" transform="translate(288.999 25.525)">
      <g id="Group_308" data-name="Group 308">
        <rect id="Rectangle_163" data-name="Rectangle 163" width="6.573" height="328.217" transform="translate(171.284 129.376)" fill="#263238"/>
        <rect id="Rectangle_164" data-name="Rectangle 164" width="220.907" height="6.573" transform="translate(214.044 174.164) rotate(-135)" fill="#263238"/>
        <rect id="Rectangle_165" data-name="Rectangle 165" width="6.573" height="71.267" transform="translate(138.937 464.165) rotate(-90)" fill="#263238"/>
        <g id="Group_307" data-name="Group 307">
          <g id="Group_306" data-name="Group 306" transform="translate(35.14)">
            <path id="Path_237" data-name="Path 237" d="M183.681,101.658,161.65,80.966,182.391,64.12,198.9,79.627Z" transform="translate(-161.65 -64.12)" fill="#ffc727"/>
            <path id="Path_238" data-name="Path 238" d="M169.18,79.291l22.031,20.692,6.049-8.764L178.37,71.83Z" transform="translate(-169.18 -62.445)" opacity="0.1"/>
          </g>
          <path id="Path_239" data-name="Path 239" d="M220.638,136.047,161.19,80.178l28.4-15.288,44.549,41.872Z" transform="translate(-161.19 -63.953)" fill="#ffc727"/>
        </g>
      </g>
    </g>
    <g id="Mug" transform="translate(79.411 203.771)">
      <g id="Group_314" data-name="Group 314">
        <g id="Group_309" data-name="Group 309" transform="translate(17.052)">
          <path id="Path_240" data-name="Path 240" d="M358.654,281.157s21.118-9.725,21.118-22.774-27.4-21.435-27.4-31.635,11.953-16.189,11.953-16.189S345.46,217.011,345.46,229.9s18.063,21.63,19.792,29.833C367.649,271.128,358.654,281.157,358.654,281.157Z" transform="translate(-338.583 -210.56)" fill="#dbdbdb" opacity="0.6"/>
          <path id="Path_241" data-name="Path 241" d="M372.228,278.466s-21.118-7.656-21.118-17.9,27.4-16.858,27.4-24.88-11.953-12.732-11.953-12.732,18.867,5.064,18.867,15.2-20.741,17.114-22.226,25.342C361.748,271.589,372.228,278.466,372.228,278.466Z" transform="translate(-351.11 -207.869)" fill="#dbdbdb" opacity="0.6"/>
        </g>
        <g id="Group_310" data-name="Group 310" transform="translate(27.301 103.401)">
          <rect id="Rectangle_166" data-name="Rectangle 166" width="20.096" height="3.14" fill="#ffc727"/>
          <rect id="Rectangle_167" data-name="Rectangle 167" width="20.096" height="2.069" opacity="0.1"/>
        </g>
        <g id="Group_311" data-name="Group 311" transform="translate(0 71.338)">
          <path id="Path_242" data-name="Path 242" d="M380.624,292.8a11.4,11.4,0,0,0,11.32,4.844,10.906,10.906,0,0,0,2.033-.584,14.541,14.541,0,0,0,2.836-1.5l-2.556-3.785a8.36,8.36,0,0,1-1.509.852c-4.784,2.167-7.814-1.607-8.411-2.459-2.751-3.871-3.737-12.708-.949-16.116.183-.256.986-.645,4.224.036.6.134,1.278.28,2.045.5a8.471,8.471,0,0,0,1.838.4l.085-2.276.219-2.264c-.207-.036-.536-.134-.962-.256a28.42,28.42,0,0,0-4.565-.949c-2.386-.243-4.881.037-6.4,1.923C375.341,276.717,377.179,287.952,380.624,292.8Z" transform="translate(-377.18 -269.169)" fill="#ffc727"/>
          <path id="Path_243" data-name="Path 243" d="M378.689,287.74a8.361,8.361,0,0,1-1.509.852l1.217,4.418a14.538,14.538,0,0,0,2.836-1.5Z" transform="translate(-361.601 -265.135)" opacity="0.1"/>
          <path id="Path_244" data-name="Path 244" d="M381.28,269.23l1.351,4.844c.6.134,1.278.28,2.045.5a8.471,8.471,0,0,0,1.838.4l.085-2.276.219-2.264c-.207-.036-.536-.134-.962-.256A30.3,30.3,0,0,0,381.28,269.23Z" transform="translate(-372.176 -269.155)" opacity="0.1"/>
        </g>
        <path id="Path_245" data-name="Path 245" d="M394.129,264.374s-.17,1.5-.523,3.859c-.061.365-.11.755-.17,1.144-.231,1.619-.548,3.542-.913,5.6-.012.11-.049.231-.061.365-.536,2.958-1.181,6.183-1.935,9.214-.037.146-.073.268-.11.39-.207.816-.426,1.619-.645,2.386s-.45,1.521-.694,2.252a35.014,35.014,0,0,1-1.521,3.883c-4.163,8.618-9.981,9.579-13.584,9.579H360.827c-3.6,0-9.421-.962-13.572-9.579-.122-.268-.256-.548-.377-.852a6,6,0,0,1-.268-.645c-.1-.219-.183-.438-.268-.682-.061-.158-.122-.329-.183-.487a68.246,68.246,0,0,1-2.154-7.474,1.49,1.49,0,0,1-.073-.316.465.465,0,0,0-.036-.122c-.256-1.071-.487-2.154-.706-3.226-.377-1.765-.706-3.493-.986-5.137-.122-.755-.256-1.5-.377-2.2-.037-.207-.061-.389-.1-.584-.073-.475-.158-.949-.219-1.388s-.122-.864-.195-1.278-.11-.8-.17-1.169c-.316-2.191-.475-3.554-.475-3.554h53.459Z" transform="translate(-330.057 -198.877)" fill="#ffc727"/>
        <g id="Group_313" data-name="Group 313" transform="translate(13.875 72.143)">
          <path id="Path_246" data-name="Path 246" d="M390.486,274.014c-.536,2.958-1.181,6.183-1.935,9.214a9.409,9.409,0,0,0-.986.195,13.892,13.892,0,0,0-4.516,1.948,26.9,26.9,0,0,0-3.773,3.14,26.7,26.7,0,0,1-3.664,3.116,8.574,8.574,0,0,1-4.406,1.436,5.563,5.563,0,0,1-4-1.9,27.12,27.12,0,0,1-3.006-3.737,42.542,42.542,0,0,0-2.958-3.932,12.345,12.345,0,0,0-1.85-1.7,8.117,8.117,0,0,0-1.168-.6,4.427,4.427,0,0,0-1.3-.219,5.034,5.034,0,0,0-2.52.633,9.807,9.807,0,0,0-2.008,1.5,48.724,48.724,0,0,0-3.347,3.591c-1.083,1.144-2.227,2.41-3.725,2.763a2.736,2.736,0,0,1-1.132.049,68.238,68.238,0,0,1-2.154-7.474c.426-.11.864-.219,1.29-.365a13.7,13.7,0,0,0,4.309-2.374,27.561,27.561,0,0,0,3.457-3.493,27.238,27.238,0,0,1,3.335-3.457,8.515,8.515,0,0,1,4.248-1.85,5.634,5.634,0,0,1,4.187,1.509,26.208,26.208,0,0,1,3.335,3.432,49.024,49.024,0,0,0,3.335,3.627,10.7,10.7,0,0,0,2.008,1.509,8.6,8.6,0,0,0,1.205.487,4.713,4.713,0,0,0,3.761-.779,10.322,10.322,0,0,0,1.874-1.68c1.12-1.229,2.008-2.593,2.982-3.883.962-1.254,1.984-2.6,3.432-3.128,1.473-.523,3.055.3,4.272,1.278C389.537,273.211,390.012,273.6,390.486,274.014Z" transform="translate(-341.945 -269.693)" opacity="0.1"/>
          <g id="Group_312" data-name="Group 312">
            <path id="Path_247" data-name="Path 247" d="M390.583,273.786c-.012.11-.049.231-.061.365-.475-.414-.949-.8-1.436-1.181-1.229-.974-2.8-1.789-4.272-1.278-1.448.523-2.471,1.875-3.432,3.128-.974,1.29-1.875,2.653-2.982,3.883a9.893,9.893,0,0,1-1.875,1.68,4.985,4.985,0,0,1-2.422.876,4.523,4.523,0,0,1-1.339-.1,8.043,8.043,0,0,1-1.205-.487,10.835,10.835,0,0,1-2.008-1.509c-1.205-1.144-2.264-2.41-3.335-3.627a26.994,26.994,0,0,0-3.335-3.432,5.617,5.617,0,0,0-4.187-1.509,8.623,8.623,0,0,0-4.248,1.85,27.234,27.234,0,0,0-3.335,3.457,27.559,27.559,0,0,1-3.457,3.493,13.465,13.465,0,0,1-4.309,2.374c-.426.146-.864.256-1.29.365a1.49,1.49,0,0,1-.073-.316c.414-.122.828-.256,1.242-.414,3.08-1.035,5.429-3.384,7.425-5.891a26.169,26.169,0,0,1,3.384-3.6,9.431,9.431,0,0,1,4.564-2.033,6.3,6.3,0,0,1,4.747,1.631,25.59,25.59,0,0,1,3.481,3.506c1.071,1.229,2.094,2.483,3.238,3.591,1.144,1.059,2.5,2.094,3.992,1.923a5.88,5.88,0,0,0,3.859-2.3c1.071-1.181,2-2.52,3.007-3.81,1.022-1.242,2.094-2.653,3.773-3.226a3.631,3.631,0,0,1,2.532.146,8.2,8.2,0,0,1,2.118,1.3C389.767,273.031,390.169,273.4,390.583,273.786Z" transform="translate(-341.98 -269.83)" fill="#fff"/>
            <path id="Path_248" data-name="Path 248" d="M387.987,281.36c-.037.146-.073.268-.11.39-.268.049-.536.11-.791.17-3.165.742-5.721,2.836-7.973,5.137a24.32,24.32,0,0,1-3.7,3.25,9.306,9.306,0,0,1-4.747,1.57A6.217,6.217,0,0,1,366.1,289.8a28.228,28.228,0,0,1-3.128-3.822,42.128,42.128,0,0,0-2.873-3.883c-1.022-1.169-2.276-2.325-3.773-2.313a5.907,5.907,0,0,0-4.053,1.923c-1.181,1.071-2.227,2.313-3.359,3.493-1.132,1.132-2.325,2.434-4.053,2.848a3.09,3.09,0,0,1-1.059.049c-.061-.158-.122-.329-.183-.487a2.736,2.736,0,0,0,1.132-.049c1.5-.365,2.641-1.619,3.725-2.763,1.083-1.193,2.118-2.471,3.347-3.591a10.148,10.148,0,0,1,2.008-1.5,5,5,0,0,1,2.52-.633,4.428,4.428,0,0,1,1.3.219,8.805,8.805,0,0,1,1.168.6,10.719,10.719,0,0,1,1.85,1.7,44.831,44.831,0,0,1,2.958,3.932,25.742,25.742,0,0,0,3.007,3.737,5.517,5.517,0,0,0,4,1.9,8.574,8.574,0,0,0,4.406-1.436,26.7,26.7,0,0,0,3.664-3.116,25.324,25.324,0,0,1,3.773-3.14A13.671,13.671,0,0,1,387,281.519C387.317,281.47,387.646,281.409,387.987,281.36Z" transform="translate(-341.38 -267.825)" fill="#fff"/>
          </g>
        </g>
      </g>
    </g>
    <g id="Character" transform="translate(57.981 111.109)">
      <g id="Group_380" data-name="Group 380" transform="translate(-51)">
        <g id="Group_316" data-name="Group 316" transform="translate(100.205 68.391)">
          <g id="Group_315" data-name="Group 315" transform="translate(62.174 234.639)">
            <path id="Path_249" data-name="Path 249" d="M112.163,383.39l92.945,74.943h-5.246L92.53,383.39Z" transform="translate(20.048 -383.39)" fill="#c7c7c7"/>
            <path id="Path_250" data-name="Path 250" d="M153.934,383.39l45.925,74.943h-5.234l-56.3-74.943Z" transform="translate(-30.45 -383.39)" fill="#c7c7c7"/>
            <path id="Path_251" data-name="Path 251" d="M227.665,383.39,181.74,458.333h5.234l56.3-74.943Z" transform="translate(-126.698 -383.39)" fill="#c7c7c7"/>
            <path id="Path_252" data-name="Path 252" d="M277.965,383.39,185.02,458.333h5.246L297.6,383.39Z" transform="translate(-185.02 -383.39)" fill="#c7c7c7"/>
          </g>
          <path id="Path_253" data-name="Path 253" d="M41.45,397.775V375.853l127.635-5.246L236.493,190.62H390.956L336.3,397.775l-130.569,36.65h-8.18Z" transform="translate(-41.45 -190.62)" fill="#455a64"/>
          <path id="Path_254" data-name="Path 254" d="M390.956,190.62H373.282l-56.94,188.824-115.524,32.73L41.45,375.853v21.922l156.105,36.65h8.18L336.3,397.775Z" transform="translate(-41.45 -190.62)" fill="#37474f"/>
        </g>
        <g id="Group_379" data-name="Group 379" transform="translate(0)">
          <g id="Group_328" data-name="Group 328" transform="translate(0 153.035)">
            <g id="Group_325" data-name="Group 325" transform="translate(0)">
              <g id="Group_320" data-name="Group 320" transform="translate(0 81.405)">
                <path id="Path_255" data-name="Path 255" d="M287.307,469.817c4.114.1,110.923-32.925,114.2-36.747.353-.426-1.315-16.237-4.078-28.8-.134-.6,37.928-50.465,37.928-50.465L366.546,327.04l-32.913,68.2-8.569,17.735s-35.627,35.822-38.78,40.411C283.168,457.986,283.193,469.732,287.307,469.817Z" transform="translate(-280.96 -327.04)" fill="#ebebeb"/>
                <g id="Group_319" data-name="Group 319" transform="translate(0 73.255)">
                  <path id="Path_256" data-name="Path 256" d="M313.24,456.642c4.3.11,115.792-33.923,119.224-37.9,1.315-1.509-.682-8.4-6.1-28.239l-73.1,8.8s-37.733,35.433-41.02,40.2C308.98,444.264,308.955,456.521,313.24,456.642Z" transform="translate(-309.899 -386.512)" fill="#ffc727"/>
                  <g id="Group_318" data-name="Group 318" transform="translate(3.332)">
                    <g id="Group_317" data-name="Group 317" transform="translate(0 18.588)">
                      <path id="Path_257" data-name="Path 257" d="M315.472,446.831c18.55-6.159,93.955-29.274,112.761-33.96.158-.036.183.061.036.122-18.258,6.512-93.846,29.006-112.7,34.155C315.168,447.245,315.083,446.965,315.472,446.831Z" transform="translate(-315.22 -400.242)" fill="#263238"/>
                      <path id="Path_258" data-name="Path 258" d="M387.922,425.8a15.658,15.658,0,0,1,12.574,1.156c3.092,1.826,6.171,4.784,7.218,8.7.024.11-.17.183-.231.073-3.3-6.987-11.916-11.381-19.5-9.689A.126.126,0,0,1,387.922,425.8Z" transform="translate(-382.96 -397.608)" fill="#263238"/>
                      <path id="Path_259" data-name="Path 259" d="M362.479,404.071c7.449-2.386,16.931-2.4,23.443,2.3.256.183-.012.536-.268.487a108.094,108.094,0,0,0-23.029-1.838A.485.485,0,0,1,362.479,404.071Z" transform="translate(-329.983 -402.495)" fill="#263238"/>
                      <path id="Path_260" data-name="Path 260" d="M366.659,407.361c7.449-2.386,16.931-2.4,23.443,2.3.256.183-.012.536-.268.487a108.094,108.094,0,0,0-23.029-1.838A.485.485,0,0,1,366.659,407.361Z" transform="translate(-339.251 -401.78)" fill="#263238"/>
                      <path id="Path_261" data-name="Path 261" d="M370.839,410.661c7.449-2.386,16.931-2.4,23.443,2.3.256.183-.012.536-.268.487a108.092,108.092,0,0,0-23.029-1.838A.485.485,0,0,1,370.839,410.661Z" transform="translate(-348.519 -401.063)" fill="#263238"/>
                      <path id="Path_262" data-name="Path 262" d="M375.019,413.961c7.449-2.386,16.931-2.4,23.443,2.3.256.183-.012.536-.268.487a108.092,108.092,0,0,0-23.029-1.838A.485.485,0,0,1,375.019,413.961Z" transform="translate(-357.787 -400.346)" fill="#263238"/>
                    </g>
                    <path id="Path_263" data-name="Path 263" d="M373.962,389.885c2.824-4.3,8.533-2.678,11.868-.134A41.059,41.059,0,0,1,398.464,406.8a.2.2,0,0,1-.17.28c0,.584-.487,1.229-1.156,1.01-6.451-2.057-13.608-3.457-19.232-7.437C374.619,398.344,371.284,393.95,373.962,389.885ZM388,402.982c3.153,1.083,6.329,2.021,9.433,3.226a123.126,123.126,0,0,0-7.6-9.8,43.6,43.6,0,0,0-4.272-4.211c-2.386-1.972-11.636-5.989-9.9,2.386C376.628,399.2,384.235,401.692,388,402.982Z" transform="translate(-355.647 -387.223)" fill="#263238"/>
                    <path id="Path_264" data-name="Path 264" d="M373.271,403.349c-6.208,2.994-13.5,3.189-20.193,4.151-.694.1-1.071-.621-.974-1.193a.2.2,0,0,1-.122-.3,41,41,0,0,1,15.288-14.728c3.712-1.96,9.6-2.6,11.685,2.106C380.914,397.822,376.9,401.608,373.271,403.349Zm3.226-5.636c3.1-7.96-6.682-5.538-9.36-3.992a45.7,45.7,0,0,0-4.917,3.445,123.944,123.944,0,0,0-9.117,8.4c3.262-.669,6.561-1.059,9.847-1.619C366.856,403.3,374.78,402.107,376.5,397.713Z" transform="translate(-311.027 -386.665)" fill="#263238"/>
                  </g>
                </g>
              </g>
              <g id="Group_324" data-name="Group 324" transform="translate(49.193)">
                <path id="Path_265" data-name="Path 265" d="M130.04,412.967l75.856,11.21s41.4-75.162,58.109-93.858l.037-.036A26.386,26.386,0,0,1,267.1,327.3l.036-.012a15.679,15.679,0,0,1,5.477-1.363l.036-.012c22.433-2.727,97.911,4.613,150.08,1.242l-24.356-32.56-10.8-14.448c-58.766-6.707-130.873-30.734-163.421-14.4C188.794,283.469,130.04,412.967,130.04,412.967Z" transform="translate(-130.04 -260.161)" fill="#263238"/>
                <g id="Group_323" data-name="Group 323" transform="translate(9.298 59.679)">
                  <g id="Group_322" data-name="Group 322" transform="translate(0 80.236)">
                    <g id="Group_321" data-name="Group 321">
                      <path id="Path_266" data-name="Path 266" d="M308.764,375.11c12.89,1.655,9.214,1.01,22.092,2.812,6.305.876,37.977,5.222,43.722,7.023a.127.127,0,0,1-.037.243c-6.013.049-37.587-4.978-43.88-5.976-12.841-2.033-9.129-1.582-21.946-3.749A.178.178,0,1,1,308.764,375.11Z" transform="translate(-308.555 -375.109)" fill="#37474f"/>
                    </g>
                  </g>
                  <path id="Path_267" data-name="Path 267" d="M138.99,398.2c8.581-14.351,47.665-85.192,55.443-87.979,7.084-2.544,148.753.4,150.847.426.146,0,.158.231.012.231-16.773-.219-146.258-.669-149.959.791-7.681,3.031-54.421,85.216-55.565,86.932C139.465,399.043,138.7,398.69,138.99,398.2Z" transform="translate(-72.821 -309.19)" fill="#37474f"/>
                </g>
              </g>
            </g>
            <g id="Group_327" data-name="Group 327" transform="translate(118.936 16.562)">
              <path id="Path_268" data-name="Path 268" d="M358.051,293.995s4.479,42.724-17.2,63.964c-25.938,25.427-197.125,19-223.66,10.431S89.83,317,118.836,307.08c27.582-9.433,149.91-14.862,152.807-16.018s11.381-14.692,11.381-14.692Z" transform="translate(-95.5 -273.202)" fill="#263238"/>
              <g id="Group_326" data-name="Group 326" transform="translate(0)">
                <path id="Path_269" data-name="Path 269" d="M109.8,289.882c.037-.207.353-.134.353.061a23.575,23.575,0,0,0,5.514,15.166c4.065,4.686,10.054,7.315,15.483,10.066.523.268.122,1.083-.414.913a48.417,48.417,0,0,1-9.592-4.126,23.3,23.3,0,0,1-7.206-5.989A20.639,20.639,0,0,1,109.8,289.882Z" transform="translate(116.528 -270.295)" fill="#37474f"/>
                <path id="Path_270" data-name="Path 270" d="M151.74,288.973c1.205-1.546,2.532-3.019,3.8-4.528,2.994-3.554,5.989-7.133,9.129-10.565.292-.329.876.134.609.487-2.106,2.763-4.345,5.429-6.536,8.119q-1.68,2.063-3.4,4.126a26.407,26.407,0,0,0-3.165,4.017c-.815,1.534.256,2.836,1.838,3.006a5.568,5.568,0,0,0,3.822-1.4c2.471-1.9,4.418-4.6,6.475-6.926,1.254-1.412,2.52-2.836,3.8-4.224,1.363-1.485,2.812-2.9,4.163-4.382.085-.1.256.036.183.146-1.181,1.619-2.276,3.323-3.469,4.954s-2.386,3.238-3.615,4.832c-1.156,1.509-2.361,2.994-3.591,4.443a14.989,14.989,0,0,1-3.639,3.262c-2.276,1.339-6.208,1.619-7.413-1.315C150.1,291.578,150.851,290.117,151.74,288.973Z" transform="translate(25.571 -273.768)" fill="#37474f"/>
                <path id="Path_271" data-name="Path 271" d="M102.316,364.995c9.129.17,18.258.706,27.4.9q13.584.292,27.192.158,27.3-.256,54.555-2.118c18.355-1.266,38.147-3.092,56.368-5.623,8.727-1.205,17.564-2.215,26.182-4.065,7.778-1.668,14.825-4.905,20.656-10.553,11.807-11.454,16.4-28.288,18.282-44.367.256-2.155.463-4.321.633-6.488.012-.146.231-.146.219,0-1.071,16.493-3.627,33.692-14,46.947a41.328,41.328,0,0,1-16.895,13.121c-8.167,3.274-17.223,4.041-25.841,5.21-18.307,2.483-38.171,4.394-56.575,5.83-18.526,1.436-37.088,2.337-55.662,2.6s-37.161.012-55.723-.9c-2.264-.109-4.528-.243-6.792-.438C102.182,365.2,102.194,364.995,102.316,364.995Z" transform="translate(-76.996 -269.649)" fill="#37474f"/>
                <path id="Path_272" data-name="Path 272" d="M169.333,326a29.405,29.405,0,0,1,12.233-17.5c6.573-4.491,14.436-6.536,22.226-7.668,8.812-1.278,17.722-1.935,26.584-2.8q27.259-2.647,54.555-4.893c18.185-1.5,57.354-4.54,59.557-4.625.195-.012.231.316.037.341C326.972,290.8,311,292.478,293.4,294.073q-26.511,2.41-53.009,5.039-13.2,1.3-26.4,2.653c-8.155.84-16.542,1.668-24.186,4.82-6.561,2.7-12.452,7.048-15.8,13.426a31.468,31.468,0,0,0-2.617,20.315,35.816,35.816,0,0,0,8.484,17.175,30.482,30.482,0,0,0,15.9,9.6c1.607.341,3.554.6,5.027.889.11.024.231.256.11.268-13.146.329-25.306-9.263-30.065-21.277A35.346,35.346,0,0,1,169.333,326Z" transform="translate(-168.394 -270.566)" fill="#37474f"/>
              </g>
            </g>
          </g>
          <g id="Group_378" data-name="Group 378" transform="translate(113.594)">
            <g id="Group_333" data-name="Group 333" transform="translate(34.791 68.135)">
              <g id="Group_331" data-name="Group 331" transform="translate(0 0.809)">
                <path id="Path_273" data-name="Path 273" d="M249.767,207.392c-8.7,34.106-25.987,74.821-33.108,81.333-9.007,8.228-64.073,19.025-66.982,19.3-4.771.463-14.618-48.627-10.164-48.53,11.782.268,48.079-3.432,50.684-5.976,2.7-2.666,21.143-24.806,40.155-49.856C243.462,186.359,255.159,186.237,249.767,207.392Z" transform="translate(-67.775 -191.074)" fill="#eb9481"/>
                <g id="Group_330" data-name="Group 330" transform="translate(0 68.301)">
                  <path id="Path_274" data-name="Path 274" d="M304.416,293.809c-.8.377-12.123,5.745-19.1,7.583-5.2,1.375-20.279,4.93-22.36-.657-1.424-3.8,7.194-6.938,13.243-9.287,3.189-1.242,7.145-4.443,6.269-6.5-1.546-3.579-9.75-.219-15.154,2.751-10.468,5.745-24.478,16.213-30.661,10.833-2.337-2.033.523-5.575,4.65-9.019-6.67,3.968-13.754,7.169-16.444,5.015-1.546-1.229-1.57-2.873-.657-4.723-2.045.609-3.834.438-5.051-.913-2.081-2.288-.962-5.563,1.461-8.885a2.57,2.57,0,0,1-1.911-1.327c-4.358-7,18.757-26.255,26.632-27.922,23.163-4.917,47.41-3.323,47.41-3.323C301.629,254.908,304.441,293.785,304.416,293.809Z" transform="translate(-218.06 -247.187)" fill="#eb9481"/>
                  <g id="Group_329" data-name="Group 329" transform="translate(2.392 6.016)">
                    <path id="Path_275" data-name="Path 275" d="M275.895,267.4a39.015,39.015,0,0,0-15.507,5.55c-5.928,3.712-9.908,8.131-14.923,12.561a.138.138,0,0,0,.183.207c2.386-2.106,12.257-9.993,14.8-11.77a37.124,37.124,0,0,1,15.471-6.439C275.968,267.485,275.944,267.388,275.895,267.4Z" transform="translate(-225.282 -248.814)" fill="#263238"/>
                    <path id="Path_276" data-name="Path 276" d="M291.365,259.28c-6.1,1.509-12.33,3.031-18.027,5.757-6.22,2.982-11.162,7.985-16.006,12.781-2.909,2.885-5.769,5.83-8.545,8.849-.122.122.049.329.183.207q7.376-7.449,15.215-14.436a49.09,49.09,0,0,1,16.554-9.884c3.493-1.242,7.084-2.2,10.663-3.165C291.45,259.378,291.438,259.268,291.365,259.28Z" transform="translate(-244.817 -250.577)" fill="#263238"/>
                    <path id="Path_277" data-name="Path 277" d="M294.215,252.13c-5.916,1.071-11.064,1.972-16.347,5-7,4-13.815,10.882-16.213,13.316-2.641,2.69-5.2,5.465-7.7,8.289-.1.11.1.292.195.183a196.141,196.141,0,0,1,18.367-17.333,39.061,39.061,0,0,1,10.188-6.281,69.8,69.8,0,0,1,11.527-3.116C294.239,252.167,294.239,252.13,294.215,252.13Z" transform="translate(-253.923 -252.13)" fill="#263238"/>
                  </g>
                </g>
              </g>
              <g id="Group_332" data-name="Group 332" transform="translate(75.584)">
                <path id="Path_278" data-name="Path 278" d="M138.348,256.358,154.9,313.529s48.822-12.683,57.914-22.019,26.632-58.3,32.012-82.1-6.719-23.5-18.2-8.691-40.034,50.7-41.592,51.451S138.348,256.358,138.348,256.358Z" transform="translate(-138.348 -190.41)" fill="#ffc727"/>
                <path id="Path_279" data-name="Path 279" d="M212.305,276.674c-2.008-6.743-4.078-13.474-5.83-20.291-1-3.871-2.021-7.741-2.982-11.624-.037-.146.207-.231.256-.085,2.288,6.682,4.564,13.4,6.536,20.193,1.972,6.755,3.992,13.5,5.867,20.278,1.071,3.859,2.021,7.729,2.848,11.649.012.073-.11.122-.134.049C216.371,290.221,214.326,283.453,212.305,276.674Z" transform="translate(-190.493 -178.64)" fill="#263238"/>
                <path id="Path_280" data-name="Path 280" d="M138.347,311.562c13.864-3.907,43.941-12.988,50.879-20.108,9.092-9.348,26.632-58.3,32.012-82.1,2.58-11.429,1.144-17.321-2.337-18.684a11.19,11.19,0,0,0-1.12.6C199.876,215.915,162.679,274.717,138.347,311.562Z" transform="translate(-114.758 -190.353)" opacity="0.1"/>
              </g>
            </g>
            <g id="Group_335" data-name="Group 335" transform="translate(168.318 67.655)">
              <g id="Group_334" data-name="Group 334">
                <path id="Path_281" data-name="Path 281" d="M197.885,320.151c-.28.28-103.486-22.336-104.435-23.528-1.339-1.692,17.114-79.3,36.565-102.464,4.869-5.794,20.364-5.392,27.29.45C191.678,223.579,198.859,319.153,197.885,320.151Z" transform="translate(-93.381 -190.015)" fill="#ffc727"/>
              </g>
            </g>
            <g id="Group_347" data-name="Group 347" transform="translate(127.224 70.33)">
              <g id="Group_346" data-name="Group 346">
                <g id="Group_343" data-name="Group 343" transform="translate(0 0.891)">
                  <path id="Path_282" data-name="Path 282" d="M116.532,199.524c20.583,15.836,74.821,79.836,63.489,95.027-11.417,15.3-89.05,10.127-111.726,3.591-6.743-1.948,10.565-44.854,17.759-46.984,5.989-1.765,39.644,7.364,40.24,5.417.682-2.2-6.768-16.4-18.794-42.322C93.649,184.358,107.44,192.537,116.532,199.524Z" transform="translate(-3.481 -192.945)" fill="#eb9481"/>
                  <g id="Group_342" data-name="Group 342" transform="translate(0 47.832)">
                    <g id="Group_341" data-name="Group 341" transform="translate(0.457)">
                      <path id="Path_283" data-name="Path 283" d="M214.027,237.632c-15,.39-18.794,2.787-31.611-3.615-8.423-4.2-14.716-.621-9,7.315,9.36,12.987,28.811,16.554,35.907,15.848Z" transform="translate(-163.547 -232.242)" fill="#eb9481"/>
                      <g id="Group_336" data-name="Group 336" transform="translate(0 5.286)">
                        <path id="Path_284" data-name="Path 284" d="M229.065,244.357s-17.978-6.427-34.008-7.6c-11.076-.815-35.384.11-54.263,27.363-4.479,6.463-6.281,18.854,4.869,10.955,7.924-5.611,11.247-11.563,16.444-13.986,0,0-.414,16.03,6.232,20.266a145.557,145.557,0,0,0,18.173,9.835,30.788,30.788,0,0,0,2.142-3.238s6.585,3.372,17.455.487Z" transform="translate(-137.31 -236.585)" fill="#eb9481"/>
                      </g>
                      <g id="Group_340" data-name="Group 340" transform="translate(15.392 6.376)">
                        <path id="Path_285" data-name="Path 285" d="M196.876,237.48c-4.65,3.493-14.4,11.077-20.205,20.047-6.451,9.969-16.2,30.9-8.788,35.591,5.429,3.432,9.859-4.224,9.859-4.224s-2.2,9.506,3.384,11.539c5.088,1.85,8.155-4.285,8.155-4.285s-.341,5.989,4.905,6.828c6.305,1.01,6-11.722,13.28-16.213C209.072,285.754,196.876,237.48,196.876,237.48Z" transform="translate(-165.22 -237.48)" fill="#eb9481"/>
                        <g id="Group_339" data-name="Group 339" transform="translate(12.399 25.103)">
                          <g id="Group_337" data-name="Group 337" transform="translate(0)">
                            <path id="Path_286" data-name="Path 286" d="M191.7,258.124c-3.834,4-10.212,15.349-10.723,26.085-.012.243.17.377.219.158a116.7,116.7,0,0,1,10.59-26.182A.052.052,0,0,0,191.7,258.124Z" transform="translate(-180.973 -258.104)" fill="#263238"/>
                          </g>
                          <g id="Group_338" data-name="Group 338" transform="translate(11.442 6.804)">
                            <path id="Path_287" data-name="Path 287" d="M182.01,263.714c-2.958,3.8-9.007,15.775-9.153,26.681,0,.243.183.365.231.146a124.189,124.189,0,0,1,9.019-26.766C182.132,263.714,182.046,263.665,182.01,263.714Z" transform="translate(-172.856 -263.694)" fill="#263238"/>
                          </g>
                        </g>
                      </g>
                    </g>
                    <path id="Path_288" data-name="Path 288" d="M217.47,256.641c-4.54,2.191-7.267,5.051-10.833,8.52a65.993,65.993,0,0,1-5.514,4.917c-1.777,1.375-4.382,3.445-6.719,2.13-1.3-.73-1.57-2.4-1.522-3.761a19.25,19.25,0,0,1,1.728-5.867c.036-.073-.085-.134-.122-.061a27.206,27.206,0,0,0-2.069,5.319,6.509,6.509,0,0,0,.183,3.8c1.144,2.52,4.3,2.349,6.378,1.266a21.39,21.39,0,0,0,3.457-2.447c1.047-.852,2.057-1.765,3.043-2.69,2.021-1.911,3.919-3.932,5.916-5.867a63.653,63.653,0,0,1,6.171-5.112C217.64,256.726,217.555,256.6,217.47,256.641Z" transform="translate(-192.227 -226.944)" fill="#263238"/>
                    <path id="Path_289" data-name="Path 289" d="M192.418,275.106c.779-2.933,5.6-15.385,7.34-18.367a.066.066,0,0,0-.11-.073c-3.14,4.151-7.571,14.509-8.472,17.747-.889,3.2-1.85,7.254-1.3,10.565.828,4.991,4.3,5.392,5.563,5.429a6.569,6.569,0,0,0,4.138-1.4,13.152,13.152,0,0,0,3.25-4.26c.037-.073-.061-.158-.11-.073-1.4,2.252-3.956,4.674-6.731,4.759a4.62,4.62,0,0,1-3.359-1.156,5.955,5.955,0,0,1-1.461-3.883A27.324,27.324,0,0,1,192.418,275.106Z" transform="translate(-174.405 -226.944)" fill="#263238"/>
                  </g>
                </g>
                <g id="Group_345" data-name="Group 345" transform="translate(75.51)">
                  <path id="Path_290" data-name="Path 290" d="M81.156,251.828,65.54,306.175s97.169,5.538,102.549-12.111-41.555-75.454-61.03-91.326c-22.567-18.392-23.784-10.675-16.432,7.729,7.693,19.268,20.936,46.777,20.936,46.777Z" transform="translate(-64.454 -192.213)" fill="#ffc727"/>
                  <g id="Group_344" data-name="Group 344" transform="translate(0 36.53)">
                    <path id="Path_291" data-name="Path 291" d="M126.609,254.642a112.27,112.27,0,0,0-14.984-5.77,106.994,106.994,0,0,0-15.495-3.42c-2.982-.463-5.989-.791-9-1.132a.073.073,0,1,0-.012.146,140.368,140.368,0,0,1,15.629,3.286c5.124,1.339,10.2,2.763,15.264,4.285,2.86.864,5.684,1.862,8.52,2.812A.11.11,0,0,0,126.609,254.642Z" transform="translate(-48.804 -217.426)" fill="#263238"/>
                    <path id="Path_292" data-name="Path 292" d="M112.335,245.127c.487.049,27.509,4.26,28.422,4.516-.17-.365-7.023-13.231-8.033-15.118-.1-.183-.195-.377-.292-.56-.609-.816-1.229-1.619-1.814-2.459-.742-1.071-1.485-2.154-2.227-3.226-.024-.037.024-.073.049-.037.791,1.035,1.57,2.081,2.361,3.128.365.487.706.974,1.047,1.473-.682-1.339-1.351-2.678-2.021-4.029-1.059-2.154-2.057-4.321-3.043-6.512-.037-.073.073-.11.11-.049,2.021,3.749,4.151,7.437,6.183,11.174s9.713,17.491,9.677,17.491c-.037.049-29.87-5.283-30.442-5.429C112.067,245.443,112.092,245.1,112.335,245.127Z" transform="translate(-95.414 -222.225)" fill="#263238"/>
                    <path id="Path_293" data-name="Path 293" d="M131.492,273.354c1.7-6.062,3.359-12.135,5.295-18.136,1.1-3.408,2.179-6.816,3.311-10.224.036-.134.268-.073.231.061-1.473,6.147-2.958,12.318-4.711,18.392-1.741,6.049-3.432,12.111-5.258,18.148-1.035,3.432-2.167,6.816-3.42,10.176a.065.065,0,0,1-.122-.036C128.084,285.538,129.775,279.452,131.492,273.354Z" transform="translate(-110.858 -217.296)" fill="#263238"/>
                    <path id="Path_294" data-name="Path 294" d="M72.076,287.881c.682-1.7,1.5-4.138,2.252-5.818.195-.438.523-.414.377.049-.475,1.521-.816,3.213-1.278,4.771,1.363.049,2.714.061,4.078.122,1.57.061,3.14.146,4.711.207q4.619.183,9.239.268,9.348.183,18.708-.049a359.561,359.561,0,0,0,37.429-2.641c3.469-.45,6.938-.962,10.383-1.57a101.83,101.83,0,0,0,10.115-2.179c.085-.024.134.122.049.158a56.974,56.974,0,0,1-8.679,2.617q-4.656,1-9.348,1.741c-6.244.962-12.525,1.582-18.818,2.045-12.476.9-25.013,1.266-37.526,1.132-3.506-.036-7.011-.122-10.517-.231-1.765-.061-3.542-.122-5.307-.219S71.966,288.173,72.076,287.881Z" transform="translate(-72.073 -209.451)" fill="#263238"/>
                  </g>
                </g>
              </g>
            </g>
            <g id="Group_352" data-name="Group 352" transform="translate(0 123.445)">
              <g id="Group_348" data-name="Group 348" transform="translate(71.681 68.991)">
                <rect id="Rectangle_168" data-name="Rectangle 168" width="124.324" height="5.015" fill="#455a64"/>
                <rect id="Rectangle_169" data-name="Rectangle 169" width="68.796" height="5.015" transform="translate(55.528)" fill="#a6a6a6"/>
              </g>
              <g id="Group_351" data-name="Group 351" transform="translate(0)">
                <g id="Group_349" data-name="Group 349" transform="translate(4.942)">
                  <path id="Path_295" data-name="Path 295" d="M335.721,309.856H226.758l-15.4-74.006H320.323Z" transform="translate(-211.36 -235.85)" fill="#a6a6a6"/>
                </g>
                <g id="Group_350" data-name="Group 350" transform="translate(0)">
                  <path id="Path_296" data-name="Path 296" d="M339.781,309.856H230.818l-15.4-74.006H324.383Z" transform="translate(-215.42 -235.85)" fill="#c7c7c7"/>
                </g>
                <path id="Path_297" data-name="Path 297" d="M275.069,268.907a6.413,6.413,0,0,1-6.5,7.267,8.249,8.249,0,0,1-8.021-7.267,6.413,6.413,0,0,1,6.5-7.267A8.268,8.268,0,0,1,275.069,268.907Z" transform="translate(-205.627 -230.248)" fill="#ebebeb"/>
              </g>
            </g>
            <g id="Group_360" data-name="Group 360" transform="translate(188.872 55.189)">
              <path id="Path_298" data-name="Path 298" d="M128.922,221.2s18.173-18.075,30.04-17.759l10.151,8.861s3.311,1.059,4.321-1.047c2.483-5.21,2.885-17.747-7.96-25.792-9.932-7.364-26.1-6.682-39.559-3.019-12.927,3.518-24.088,12.208-20.047,20.631S128.922,221.2,128.922,221.2Z" transform="translate(-105.028 -179.774)" fill="#ffc727"/>
              <path id="Path_299" data-name="Path 299" d="M134.516,216.6s-14.947-10.48-16.53-16.773,10.955-12.391,19.073-14.813c12.561-3.749,21.143-3.006,28.251,3.652S134.516,216.6,134.516,216.6Z" transform="translate(-111.949 -179.125)" opacity="0.1"/>
              <path id="Path_300" data-name="Path 300" d="M116.93,215.484s14.485-24.989,32.8-27.594l-1.424,13.791s-10.943.122-30.04,17.759Z" transform="translate(-94.363 -178.011)" fill="#ffc727"/>
              <g id="Group_353" data-name="Group 353" transform="translate(5.003 23.464)">
                <path id="Path_301" data-name="Path 301" d="M167.925,199.464a23.292,23.292,0,0,0-9.835,1.4,43.152,43.152,0,0,0-8.983,4.285,78.773,78.773,0,0,0-8.167,5.733l-3.81,3.25-3.664,3.42-.414.39-.463-.231a85.54,85.54,0,0,1-9.932-5.879,47.477,47.477,0,0,1-4.589-3.493,29.928,29.928,0,0,1-4.029-4.114,51.156,51.156,0,0,0,9.165,6.755c1.619.986,3.286,1.9,4.966,2.787s3.372,1.765,5.076,2.556l-.876.146,3.664-3.542c1.266-1.132,2.568-2.227,3.871-3.323,1.363-1.022,2.7-2.069,4.1-3.043,1.436-.925,2.836-1.9,4.358-2.678a40.112,40.112,0,0,1,9.445-3.919c.816-.243,1.668-.39,2.5-.56.852-.11,1.692-.243,2.544-.292A15.416,15.416,0,0,1,167.925,199.464Z" transform="translate(-114.04 -199.05)" fill="#263238"/>
                <path id="Path_302" data-name="Path 302" d="M119.921,208.079a55.507,55.507,0,0,1-10.151-8.849,50.242,50.242,0,0,1,5.343,4.114A47.714,47.714,0,0,1,119.921,208.079Z" transform="translate(-60.839 -199.011)" fill="#263238"/>
              </g>
              <g id="Group_356" data-name="Group 356" transform="translate(24.306 32.908)">
                <g id="Group_354" data-name="Group 354">
                  <path id="Path_303" data-name="Path 303" d="M142.024,206.883a100.875,100.875,0,0,1,1.753,17.357c.085,4.065-1.473,18.635-5.989,18.112s2.836-9.932,4.126-17.625c1.315-7.8-.767-13.316-1.047-17.917Z" transform="translate(-136.337 -206.81)" fill="#ffc727"/>
                </g>
                <g id="Group_355" data-name="Group 355" opacity="0.1">
                  <path id="Path_304" data-name="Path 304" d="M142.024,206.883a100.875,100.875,0,0,1,1.753,17.357c.085,4.065-1.473,18.635-5.989,18.112s2.836-9.932,4.126-17.625c1.315-7.8-.767-13.316-1.047-17.917Z" transform="translate(-136.337 -206.81)"/>
                </g>
              </g>
              <g id="Group_359" data-name="Group 359" transform="translate(10.363 33.785)">
                <g id="Group_357" data-name="Group 357">
                  <path id="Path_305" data-name="Path 305" d="M153.167,207.53a145.881,145.881,0,0,0-3.359,16.907c-.5,3.652-.584,16.943,3.542,16.943s-1.534-9.239-1.911-16.3c-.377-7.169,2.057-13.365,2.775-17.479Z" transform="translate(-149.568 -207.53)" fill="#ffc727"/>
                </g>
                <g id="Group_358" data-name="Group 358" opacity="0.1">
                  <path id="Path_306" data-name="Path 306" d="M153.167,207.53a145.881,145.881,0,0,0-3.359,16.907c-.5,3.652-.584,16.943,3.542,16.943s-1.534-9.239-1.911-16.3c-.377-7.169,2.057-13.365,2.775-17.479Z" transform="translate(-149.568 -207.53)"/>
                </g>
              </g>
            </g>
            <g id="Group_377" data-name="Group 377" transform="translate(170.173)">
              <g id="Group_376" data-name="Group 376">
                <g id="Group_362" data-name="Group 362" transform="translate(26.891 47.711)">
                  <g id="Group_361" data-name="Group 361">
                    <path id="Path_307" data-name="Path 307" d="M144.418,215.782c4.711-.3,13.5-10.151,16.493-17.966.207-.536-1.278-5.684-2.775-12.026-.9-3.846-1.8-8.167-2.349-12.16l-24.222,9.494s3.6,8.034,4.5,15.008a8.6,8.6,0,0,1,.049,1.668,2.13,2.13,0,0,0,0,.28C136.043,203.244,137.029,216.256,144.418,215.782Z" transform="translate(-131.564 -173.63)" fill="#eb9481"/>
                  </g>
                  <path id="Path_308" data-name="Path 308" d="M141.772,199.666a2.114,2.114,0,0,0,0,.28,15.658,15.658,0,0,0,2.6-.219c14.193-2.264,15.312-20.084,15.312-25.537l-22.469,8.8s3.6,8.034,4.528,15.008A15.425,15.425,0,0,1,141.772,199.666Z" transform="translate(-137.208 -173.508)" fill="#263238"/>
                </g>
                <g id="Group_375" data-name="Group 375">
                  <g id="Group_363" data-name="Group 363" transform="translate(8.806 7.444)">
                    <path id="Path_309" data-name="Path 309" d="M172.773,149.57c5.076,7.875,7.583,34.081,3.019,41.372-6.609,10.565-20.948,15.458-30.819,6.719-9.567-8.484-12.221-42.687-6.8-49.674C146.153,137.7,165.275,137.946,172.773,149.57Z" transform="translate(-135.396 -140.548)" fill="#eb9481"/>
                  </g>
                  <g id="Group_371" data-name="Group 371" transform="translate(10.404 31.861)">
                    <path id="Path_310" data-name="Path 310" d="M156.87,164.323a20.9,20.9,0,0,1-2.3-.5,3.83,3.83,0,0,1-2.252-.949,1.206,1.206,0,0,1,.012-1.473,3,3,0,0,1,2.958-.694,4.436,4.436,0,0,1,2.763,1.57A1.29,1.29,0,0,1,156.87,164.323Z" transform="translate(-137.438 -160.608)" fill="#263238"/>
                    <path id="Path_311" data-name="Path 311" d="M165.937,166.4a22.6,22.6,0,0,0,2.179-.876,3.826,3.826,0,0,0,2.057-1.315,1.228,1.228,0,0,0-.256-1.461,3,3,0,0,0-3.031-.183,4.376,4.376,0,0,0-2.459,2.008A1.3,1.3,0,0,0,165.937,166.4Z" transform="translate(-164.263 -160.252)" fill="#263238"/>
                    <path id="Path_312" data-name="Path 312" d="M155.4,180.6c-.365.463-.718,1.083-1.351,1.217a4.6,4.6,0,0,1-1.948-.207c-.061-.012-.11.049-.061.1a2.384,2.384,0,0,0,2.349.669,1.875,1.875,0,0,0,1.181-1.728C155.592,180.549,155.458,180.525,155.4,180.6Z" transform="translate(-134.613 -156.276)" fill="#263238"/>
                    <g id="Group_365" data-name="Group 365" transform="translate(7.526 1.195)">
                      <g id="Group_364" data-name="Group 364">
                        <path id="Path_313" data-name="Path 313" d="M164.947,179.69a6.063,6.063,0,0,1-3.652,3.177,7.913,7.913,0,0,1-2.142.377,2.351,2.351,0,0,1-.414,0c-.134,0-.243,0-.39-.012a.438.438,0,0,1-.4-.353v-.012a.922.922,0,0,1-.012-.183v-.012l-.012-.158c-.207-1.351-.341-3.42-.341-3.42-.463.316-2.836,1.765-2.9,1.059-.4-5.9-.84-12.464.012-18.416a.165.165,0,0,1,.329,0c.609,5.66.207,11.381.73,17.065a10.34,10.34,0,0,1,2.714-1.217c.195.037.183,4.017.329,4.613a.123.123,0,0,0,.024.061c2.313,0,3.944-.9,5.952-2.714C164.886,179.434,165.032,179.531,164.947,179.69Z" transform="translate(-154.209 -161.59)" fill="#263238"/>
                      </g>
                    </g>
                    <g id="Group_366" data-name="Group 366" transform="translate(13.176 19.246)">
                      <path id="Path_314" data-name="Path 314" d="M153.327,179.22a7.107,7.107,0,0,0,3.128,1.838,3.2,3.2,0,0,0,1.96-.122c1.351-.548,1.229-1.838.828-2.909a8.168,8.168,0,0,0-.84-1.607A9.313,9.313,0,0,1,153.327,179.22Z" transform="translate(-153.327 -176.42)" fill="#263238"/>
                      <path id="Path_315" data-name="Path 315" d="M153.329,180.781a3.2,3.2,0,0,0,1.96-.122c1.351-.548,1.229-1.838.828-2.909A3.3,3.3,0,0,0,153.329,180.781Z" transform="translate(-150.201 -176.131)" fill="#ff9abb"/>
                    </g>
                    <g id="Group_368" data-name="Group 368" transform="translate(15.971 6.399)">
                      <g id="Group_367" data-name="Group 367">
                        <path id="Path_316" data-name="Path 316" d="M153.951,167.6c0-.073.146.061.158.134.219,1.753.767,3.712,2.434,4.041.049.012.061.1,0,.1C154.584,171.913,153.878,169.3,153.951,167.6Z" transform="translate(-153.946 -165.493)" fill="#263238"/>
                        <path id="Path_317" data-name="Path 317" d="M154.074,165.92c2.763-.657,3.871,4.917,1.315,5.526C152.869,172.042,151.761,166.467,154.074,165.92Z" transform="translate(-152.803 -165.866)" fill="#263238"/>
                      </g>
                    </g>
                    <g id="Group_370" data-name="Group 370" transform="translate(2.16 8.352)">
                      <g id="Group_369" data-name="Group 369">
                        <path id="Path_318" data-name="Path 318" d="M165.025,168.7c-.024-.061-.122.11-.1.183.414,1.716.6,3.749-.84,4.638a.053.053,0,0,0,.037.1C165.95,172.95,165.683,170.26,165.025,168.7Z" transform="translate(-161.385 -167.205)" fill="#263238"/>
                        <path id="Path_319" data-name="Path 319" d="M165.906,167.482c-2.812.365-1.887,5.976.73,5.636C169.2,172.789,168.267,167.178,165.906,167.482Z" transform="translate(-164.189 -167.47)" fill="#263238"/>
                      </g>
                    </g>
                  </g>
                  <g id="Group_372" data-name="Group 372" transform="translate(0)">
                    <path id="Path_320" data-name="Path 320" d="M176.117,167.781c-3.6-4.491-3.773-14.144-7.169-15.519-7.352-2.97-15.227,10.7-23.005,13.572-7.534,2.787-11.819-1.156-12.683-7.778s2.848-12.622,10.87-16.968c8.289-4.491,17.564-3.859,22.92-2.641,0,0-3.019-2.374-2.641-3.579s5.137.39,6.719,1.229a12.03,12.03,0,0,1,3.165,2.97,12.791,12.791,0,0,1,3.323-1.607c1.935-.645,4.905-.024,5.2.377s-2.325,1.753-4.212,2.544c0,0,5.319,3.469,6.731,7.583s2.081,25.8.633,26.571C184.09,175.51,177.578,169.606,176.117,167.781Z" transform="translate(-132.43 -134.433)" fill="#455a64"/>
                    <path id="Path_321" data-name="Path 321" d="M132.4,139.14c-.085-.012-.134.11-.049.146a13.78,13.78,0,0,1,6.183,4.3,16.921,16.921,0,0,1,3.128,8.386c.755,5.794-.11,11.612-.584,17.382-.012.17.268.195.292.024.9-6.086,1.692-12.622.645-18.733C141.131,145.433,137.966,140.211,132.4,139.14Z" transform="translate(-87.17 -133.411)" fill="#455a64"/>
                    <path id="Path_322" data-name="Path 322" d="M172,147.361a19.557,19.557,0,0,0-6.682,2.933c-1.935,1.315-3.286,3.3-4.82,5.039-3.445,3.883-7.5,7.4-12.561,8.9-.061.024-.036.11.037.1,4.735-1.071,8.679-4.029,11.977-7.5,1.668-1.741,3.055-3.883,4.917-5.429,2.118-1.741,4.747-2.653,7.267-3.627A.218.218,0,0,0,172,147.361Z" transform="translate(-135.91 -131.626)" fill="#455a64"/>
                    <path id="Path_323" data-name="Path 323" d="M182.972,137.395a38.1,38.1,0,0,0-10.845.316,30.156,30.156,0,0,0-9.9,3.2c-5.258,2.946-9.117,8.374-8.338,14.594a12.981,12.981,0,0,0,4.309,8.313.168.168,0,0,0,.231-.243,13.4,13.4,0,0,1-2.507-15.872c3.14-5.648,9.47-8.289,15.531-9.445a54.565,54.565,0,0,1,11.527-.791C183,137.431,183,137.395,182.972,137.395Z" transform="translate(-153.793 -133.844)" fill="#455a64"/>
                  </g>
                  <g id="Group_373" data-name="Group 373" transform="translate(6.164 33.005)">
                    <path id="Path_324" data-name="Path 324" d="M156.436,177.581a8.165,8.165,0,1,0-10.346-7.693h0a8.176,8.176,0,0,0,8.338,7.985A7.85,7.85,0,0,0,156.436,177.581ZM152.359,162.9a6.834,6.834,0,0,1,1.741-.256,7.064,7.064,0,1,1-1.741.256Z" transform="translate(-130.001 -161.548)" fill="#37474f"/>
                    <path id="Path_325" data-name="Path 325" d="M170.551,179.876c3.006-.84,4.881-4.674,4.224-8.886a9.7,9.7,0,0,0-2.58-5.368,5.083,5.083,0,0,0-8.593,1.339,9.759,9.759,0,0,0-.828,5.9c.694,4.443,3.944,7.644,7.254,7.133C170.211,179.961,170.381,179.925,170.551,179.876Zm-3.274-14.85c.134-.037.268-.061.4-.085a4.377,4.377,0,0,1,3.737,1.448,8.662,8.662,0,0,1,2.276,4.771c.6,3.859-1.12,7.328-3.846,7.754s-5.417-2.374-6.013-6.22a8.689,8.689,0,0,1,.718-5.234A4.547,4.547,0,0,1,167.277,165.026Z" transform="translate(-162.642 -161.056)" fill="#37474f"/>
                    <path id="Path_326" data-name="Path 326" d="M164.214,169.469l.56-.937c-1.388-.84-4.431-1.777-6.074.633l.9.609C161.086,167.619,164.092,169.4,164.214,169.469Z" transform="translate(-147.711 -160.228)" fill="#37474f"/>
                    <path id="Path_327" data-name="Path 327" d="M150.4,167.084l.876-.645c-.3-.414-3.006-4.017-5.477-4.029-2.313-.012-16.554,3.591-17.15,3.749l.268,1.059c4.078-1.035,15.093-3.725,16.882-3.712C147.431,163.518,149.671,166.086,150.4,167.084Z" transform="translate(-97.638 -161.361)" fill="#37474f"/>
                  </g>
                  <g id="Group_374" data-name="Group 374" transform="translate(46.609 29.675)">
                    <path id="Path_328" data-name="Path 328" d="M130.957,167.415s3.542-9.579,7.741-8.52,3.019,13.913-.876,16.651a4.537,4.537,0,0,1-6.5-.816Z" transform="translate(-130.957 -158.813)" fill="#eb9481"/>
                    <path id="Path_329" data-name="Path 329" d="M138.287,161.9a.06.06,0,0,1,.049.11c-2.7,2.021-3.566,5.234-3.919,8.435.609-1.351,1.668-2.288,3.445-1.607.1.037.049.183-.037.183a2.8,2.8,0,0,0-2.727,1.716,12.716,12.716,0,0,0-.791,2.775c-.073.3-.6.292-.572-.049a.154.154,0,0,1,.012-.073C132.663,169.557,134.246,163.374,138.287,161.9Z" transform="translate(-130.971 -158.143)" fill="#263238"/>
                  </g>
                </g>
              </g>
            </g>
          </g>
        </g>
      </g>
    </g>
  </g>
</svg>
