<svg id="target" xmlns="http://www.w3.org/2000/svg" width="65" height="72.709" viewBox="0 0 65 72.709">
  <path id="Path_154" data-name="Path 154" d="M58.312,32.762H54.54a1.065,1.065,0,0,0,0,2.13h1.2L52.5,38.131a1.065,1.065,0,0,0,1.506,1.506L57.247,36.4v1.2a1.065,1.065,0,1,0,2.13,0V33.828A1.078,1.078,0,0,0,58.312,32.762ZM92.081,5.46a1.636,1.636,0,0,0-1.173-1.15l-2.455-.624-.624-2.456A1.633,1.633,0,0,0,85.091.478L78.166,7.4a1.641,1.641,0,0,0-.429,1.55l.788,3.155L75.26,15.373a28.616,28.616,0,0,0-38.6-.341,1.065,1.065,0,1,0,1.423,1.585,26.488,26.488,0,0,1,35.673.263l-5.07,5.07a19.346,19.346,0,1,0-2.423,30.666A1.065,1.065,0,1,0,65.1,50.826a17.219,17.219,0,1,1,2.071-27.369l-5.082,5.082A10.068,10.068,0,1,0,63.6,30.046l5.082-5.082a17.184,17.184,0,0,1,0,22.79,1.065,1.065,0,0,0,1.6,1.412,19.312,19.312,0,0,0-.082-25.711l5.07-5.07A26.5,26.5,0,1,1,34.834,20.1a1.065,1.065,0,1,0-1.682-1.307,28.618,28.618,0,0,0,2.237,37.653l-4.43,7.674a5.727,5.727,0,0,0,9.92,5.726l4.037-6.991a28.622,28.622,0,0,0,21.737,0l4.037,6.991a5.727,5.727,0,0,0,9.92-5.726l-4.43-7.674a28.59,28.59,0,0,0,.588-39.569l3.288-3.288,3.121.806a1.643,1.643,0,0,0,1.563-.426l6.922-6.923a1.637,1.637,0,0,0,.42-1.588ZM63.7,36.356a7.932,7.932,0,1,1-3.127-6.3l-.215.215a1.065,1.065,0,0,0,1.506,1.506l.214-.214A7.88,7.88,0,0,1,63.7,36.356ZM39.033,68.782a3.6,3.6,0,1,1-6.23-3.6l4.179-7.238a28.753,28.753,0,0,0,5.986,4.02Zm39.73-3.6a3.6,3.6,0,1,1-6.23,3.6L68.6,61.968a28.754,28.754,0,0,0,5.986-4.02Zm4.669-52.923-2.858-.738-.7-2.815L85.979,2.6l.481,1.9a1.632,1.632,0,0,0,1.181,1.181l1.9.481Z" transform="translate(-27.139 0)" fill="#009c00"/>
</svg>
