<svg id="united" xmlns="http://www.w3.org/2000/svg" width="65" height="63.508" viewBox="0 0 65 63.508">
  <path id="Path_183" data-name="Path 183" d="M202.637,447.757l-.214,1.048.207-1.049a1.069,1.069,0,1,0-.413,2.1l.02,0a1.089,1.089,0,0,0,.2.019,1.07,1.07,0,0,0,.2-2.12Zm0,0" transform="translate(-175.886 -391.715)" fill="#009800"/>
  <path id="Path_184" data-name="Path 184" d="M261.911,450.261l.106,1.064-.11-1.063a1.069,1.069,0,0,0,.108,2.133c.037,0,.074,0,.111-.006l.03,0a1.069,1.069,0,0,0-.245-2.125Zm0,0" transform="translate(-227.943 -393.875)" fill="#009800"/>
  <path id="Path_185" data-name="Path 185" d="M232.227,451.232h-.016a1.063,1.063,0,0,0-1.108,1.021,1.075,1.075,0,0,0,1.027,1.116h.05a1.069,1.069,0,0,0,.047-2.138Zm0,0" transform="translate(-201.872 -394.711)" fill="#009800"/>
  <path id="Path_186" data-name="Path 186" d="M174.013,439.857l-.013-.005a1.063,1.063,0,0,0-1.361.647,1.073,1.073,0,1,0,1.375-.642Zm0,0" transform="translate(-150.749 -384.902)" fill="#009800"/>
  <path id="Path_187" data-name="Path 187" d="M291.158,444.837l.263,1.036-.267-1.035a1.069,1.069,0,1,0,.534,2.071l.028-.007a1.069,1.069,0,0,0-.559-2.065Zm0,0" transform="translate(-253.628 -389.2)" fill="#009800"/>
  <path id="Path_188" data-name="Path 188" d="M319.236,435.043l.424.981-.427-.98a1.069,1.069,0,1,0,.854,1.961l.026-.012a1.069,1.069,0,0,0-.877-1.95Zm0,0" transform="translate(-278.295 -380.754)" fill="#009800"/>
  <path id="Path_189" data-name="Path 189" d="M147.551,80.829a1.07,1.07,0,1,0-.5-2.014l-.013.007a1.068,1.068,0,0,0,.512,2.007Zm0,0" transform="translate(-127.951 -67.469)" fill="#009800"/>
  <path id="Path_190" data-name="Path 190" d="M63.809,165.263a1.069,1.069,0,0,0,1.444-.451l.019-.037a1.07,1.07,0,1,0-1.463.488Zm0,0" transform="translate(-54.22 -142.59)" fill="#009800"/>
  <path id="Path_191" data-name="Path 191" d="M52.323,193.078a1.068,1.068,0,0,0,1.356-.67l.014-.042a1.07,1.07,0,1,0-1.37.712Zm0,0" transform="translate(-44.24 -166.829)" fill="#009800"/>
  <path id="Path_192" data-name="Path 192" d="M79.4,139.541a1.068,1.068,0,0,0,1.494-.236l.014-.019a1.069,1.069,0,0,0-1.74-1.244l.862.634-.865-.629A1.069,1.069,0,0,0,79.4,139.541Zm0,0" transform="translate(-67.705 -120.196)" fill="#009800"/>
  <path id="Path_193" data-name="Path 193" d="M122.114,96.971a1.074,1.074,0,1,0-.619-1.943l-.027.019a1.07,1.07,0,0,0,.646,1.924Zm0,0" transform="translate(-105.735 -82.829)" fill="#009800"/>
  <path id="Path_194" data-name="Path 194" d="M49.688,311.018a1.069,1.069,0,1,0-.014-.047Zm0,0" transform="translate(-42.559 -270.464)" fill="#009800"/>
  <path id="Path_195" data-name="Path 195" d="M99.459,116.754a1.073,1.073,0,1,0-.747-1.833l-.018.018a1.069,1.069,0,0,0,.765,1.816Zm0,0" transform="translate(-85.945 -100.113)" fill="#009800"/>
  <path id="Path_196" data-name="Path 196" d="M45.479,281.125a1.069,1.069,0,0,0-2.123.265l.006.043a1.069,1.069,0,0,0,2.116-.307Zm0,0" transform="translate(-37.169 -244.758)" fill="#009800"/>
  <path id="Path_197" data-name="Path 197" d="M42.628,252.3h.032a1.069,1.069,0,0,0,1.068-1.038v-.046a1.07,1.07,0,1,0-1.1,1.083Zm0,0" transform="translate(-35.661 -218.513)" fill="#009800"/>
  <path id="Path_198" data-name="Path 198" d="M45.213,222.32a1.1,1.1,0,0,0,.19.017,1.07,1.07,0,0,0,1.052-.881c0-.016.005-.031.007-.047a1.07,1.07,0,1,0-1.249.911Zm0,0" transform="translate(-38.011 -192.338)" fill="#009800"/>
  <path id="Path_199" data-name="Path 199" d="M403.112,143.443a1.069,1.069,0,0,0,1.76-1.214l-.889.595.886-.6a1.07,1.07,0,1,0-1.771,1.2Zm0,0" transform="translate(-351.954 -123.827)" fill="#009800"/>
  <path id="Path_200" data-name="Path 200" d="M436.89,229.03a1.069,1.069,0,0,0-.943,1.182l.006.046a1.07,1.07,0,0,0,1.058.918,1.092,1.092,0,0,0,.153-.011,1.077,1.077,0,0,0-.273-2.136Zm0,0" transform="translate(-381.785 -200.059)" fill="#009800"/>
  <path id="Path_201" data-name="Path 201" d="M429.683,199.657l0,.014a1.069,1.069,0,0,0,1.025.768,1.053,1.053,0,0,0,.3-.044,1.069,1.069,0,0,0,.725-1.328l0-.014a1.069,1.069,0,1,0-2.052.6Zm0,0" transform="translate(-376.382 -173.209)" fill="#009800"/>
  <path id="Path_202" data-name="Path 202" d="M418.649,170.512a1.075,1.075,0,0,0,.965.6,1.069,1.069,0,0,0,.957-1.538l-.969.452.968-.454a1.069,1.069,0,0,0-1.937.908Zm0,0" transform="translate(-366.858 -147.59)" fill="#009800"/>
  <path id="Path_203" data-name="Path 203" d="M383.51,119.179a1.077,1.077,0,1,0-.032-.034Zm0,0" transform="translate(-334.728 -102.509)" fill="#009800"/>
  <path id="Path_204" data-name="Path 204" d="M438.417,260.385a1.076,1.076,0,0,0-.091,2.15l.061,0a1.07,1.07,0,0,0,1.067-1.01l0-.044A1.068,1.068,0,0,0,438.417,260.385Zm0,0" transform="translate(-382.965 -227.454)" fill="#009800"/>
  <path id="Path_205" data-name="Path 205" d="M334.109,81.277l.026.014a1.065,1.065,0,0,0,1.44-.439,1.073,1.073,0,0,0-.434-1.448l-.517.936.514-.938a1.069,1.069,0,1,0-1.028,1.875Zm0,0" transform="translate(-291.366 -67.968)" fill="#009800"/>
  <path id="Path_206" data-name="Path 206" d="M360.3,98.264l.017.013a1.07,1.07,0,0,0,1.293-1.7l-.007-.005a1.069,1.069,0,1,0-1.3,1.7Zm0,0" transform="translate(-314.365 -84.161)" fill="#009800"/>
  <path id="Path_207" data-name="Path 207" d="M64.412,47.472l-4.47-4.478a2.011,2.011,0,0,0-2.847,0l-.1.1L56.7,42.8a3.843,3.843,0,0,1-.834-1.247.928.928,0,0,0-.068-.177,3.85,3.85,0,0,1-.222-1.293V38.82a.959.959,0,1,0-.006-1.693A5.368,5.368,0,0,0,54,33.547L49.66,29.2a5.145,5.145,0,0,0-6.579-.591l-.46-.463V17.26a5.407,5.407,0,0,0-1.341-3.566,3.842,3.842,0,0,1-.954-2.536v-.8h.065A2.015,2.015,0,0,0,42.4,8.347V2.013A2.015,2.015,0,0,0,40.39,0H22.6a2.015,2.015,0,0,0-2.013,2.013V8.347A2.015,2.015,0,0,0,22.6,10.361h.147v.418A3.82,3.82,0,0,1,21.628,13.5l-1.92,1.923a5.372,5.372,0,0,0-1.579,3.82v6.143a5.134,5.134,0,0,0,.553,2.321,5.113,5.113,0,0,0-3.341,1.5L11,33.547a5.373,5.373,0,0,0-1.579,3.82v2.72A3.82,3.82,0,0,1,8.3,42.8l-.29.291,0,0-.1-.1a2.011,2.011,0,0,0-2.847,0L.588,47.472a2.019,2.019,0,0,0,0,2.848l1.531,1.533a.952.952,0,1,0,1.347-1.345l-1.53-1.533a.11.11,0,0,1,0-.156l4.47-4.478a.107.107,0,0,1,.151,0l.777.779h0L17.946,55.747l1.189,1.191a.11.11,0,0,1,0,.156l-4.47,4.478a.107.107,0,0,1-.152,0L6.162,53.207a.952.952,0,1,0-1.348,1.345l8.352,8.366a2.011,2.011,0,0,0,2.847,0l4.47-4.478a2.018,2.018,0,0,0,0-2.847l-.049-.049L21,54.98a3.826,3.826,0,0,1,2.463-1.117,5.388,5.388,0,0,0,3.467-1.572l4.106-4.115a3.26,3.26,0,0,0,2.357-2.484,3.247,3.247,0,0,0,4.639-2.938V40.494a3.245,3.245,0,0,0,4.591-2.96V30.85l2.929,2.943A.952.952,0,0,0,46.9,32.45L44.457,30a3.243,3.243,0,0,1,3.855.553l4.336,4.343a3.481,3.481,0,0,1,1.023,2.475v2.72a5.713,5.713,0,0,0,1.68,4.063l.3.3-1.381,1.384L45.912,54.2l-.466-.467-.014-.014-.082-.082a5.733,5.733,0,0,0-3.687-1.671,3.492,3.492,0,0,1-2.245-1.019l-3.129-3.112a.952.952,0,1,0-1.343,1.35l3.127,3.109a5.388,5.388,0,0,0,3.467,1.572A3.828,3.828,0,0,1,44,54.979l.046.046a.916.916,0,0,0,.079.079l.439.439-.049.049a2.018,2.018,0,0,0,0,2.847l4.47,4.478a2.011,2.011,0,0,0,2.848,0l12.577-12.6A2.018,2.018,0,0,0,64.412,47.472ZM56.213,38,56.2,38l-.174-.035ZM25.58,50.945a3.485,3.485,0,0,1-2.242,1.017,5.733,5.733,0,0,0-3.688,1.671l-.562.563-.506-.507-.019-.019L9.354,44.445l.3-.3a5.713,5.713,0,0,0,1.68-4.062v-2.72a3.479,3.479,0,0,1,1.023-2.475l4.336-4.343a3.242,3.242,0,0,1,3.86-.55L18.1,32.449a.952.952,0,0,0,1.348,1.345l2.921-2.927V42.754a3.247,3.247,0,0,0,4.657,2.929,3.263,3.263,0,0,0,1.614,2.192ZM40.716,37.534a1.343,1.343,0,1,1-2.687,0V26.914a.952.952,0,0,0-1.9,0V42.755a1.342,1.342,0,0,1-2.667.223V26.9a.962.962,0,0,0-1.924.011V42.754a3.265,3.265,0,0,0,.02.357V45.03a1.343,1.343,0,1,1-2.686,0V26.891a.952.952,0,0,0-1.9,0V42.754a1.343,1.343,0,1,1-2.686,0V25.043a.952.952,0,1,0-1.9,0v3.276a.935.935,0,0,0-.229.11,3.258,3.258,0,0,1-2.11-3.047V19.238a3.481,3.481,0,0,1,1.023-2.475l1.92-1.923a5.711,5.711,0,0,0,1.68-4.062v-.418H26.57a.952.952,0,1,0,0-1.9H22.6a.109.109,0,0,1-.109-.109V2.013A.109.109,0,0,1,22.6,1.9H40.39a.109.109,0,0,1,.109.109V8.347a.109.109,0,0,1-.109.109H31.04a.952.952,0,0,0,0,1.9h7.381v.8a5.749,5.749,0,0,0,1.426,3.792,3.5,3.5,0,0,1,.869,2.309ZM63.064,48.973l-12.577,12.6a.1.1,0,0,1-.076.032.1.1,0,0,1-.076-.032l-4.47-4.478a.11.11,0,0,1,0-.156l.72-.721h0l7.3-7.314,4.556-4.564a.106.106,0,0,1,.151,0l4.47,4.478A.11.11,0,0,1,63.064,48.973Zm0,0" fill="#009800"/>
  <path id="Path_208" data-name="Path 208" d="M194.955,32.8a1.141,1.141,0,1,0,1.139,1.141A1.141,1.141,0,0,0,194.955,32.8Zm0,0" transform="translate(-169.308 -28.127)" fill="#009800"/>
  <path id="Path_209" data-name="Path 209" d="M456.553,374.688a1.141,1.141,0,1,0,1.138,1.141A1.141,1.141,0,0,0,456.553,374.688Zm0,0" transform="translate(-398.482 -327.313)" fill="#009800"/>
  <path id="Path_210" data-name="Path 210" d="M111.289,444.344a1.139,1.139,0,1,0-1.138,1.141A1.141,1.141,0,0,0,111.289,444.344Zm0,0" transform="translate(-95.227 -387.828)" fill="#009800"/>
</svg>
